<svg xmlns="http://www.w3.org/2000/svg" viewBox="0 0 4096 2304" preserveAspectRatio="xMidYMid slice" role="img" aria-labelledby="title desc">
<title id="title">Carbon ridge</title><desc id="desc">Compressed carbon strata form a long technical ridge with measured cuts and a single active seam.</desc>
<defs><style>:root{--g:#f4f6f8;--p:#ccd2d7;--h:#e8ecef;--m:#101419;--l:#14191f;--s:#2f7cff}@media(prefers-color-scheme:dark){:root{--g:#050608;--p:#171d23;--h:#2a323a;--m:#080b0f;--l:#e1e8ee;--s:#2f7cff}}</style><filter id="n"><feTurbulence type="fractalNoise" baseFrequency=".63" numOctaves="4" seed="83"/><feColorMatrix values="1 0 0 0 0 0 1 0 0 0 0 0 1 0 0 0 0 0 .09 0"/></filter><filter id="gl"><feGaussianBlur stdDeviation="14" result="b"/><feMerge><feMergeNode in="b"/><feMergeNode in="SourceGraphic"/></feMerge></filter></defs>
<rect width="4096" height="2304" fill="var(--g)"/><path d="M0 460h4096l-420 300 270 250-520 292 310 268-450 282 200 452H0z" fill="var(--h)"/><path d="M0 760h3676l270 250-520 292 310 268-450 282 200 452H0z" fill="var(--p)"/><path d="M0 1010h3946l-520 292 310 268-450 282 200 452H0z" fill="var(--m)" opacity=".7"/><path d="M0 1302h3426l310 268-450 282 200 452H0z" fill="var(--h)" opacity=".5"/><g fill="none" stroke="var(--l)" stroke-width="5" opacity=".23"><path d="M0 460h4096M0 760h3676M0 1010h3946M0 1302h3426M0 1570h3736M0 1852h3286"/><path d="M620 210h2440M3100 210h560"/><path d="M780 560v1500M1400 560v1500M2760 560v1500M3380 560v1500"/></g><path d="M0 1570h1540" stroke="var(--s)" stroke-width="10" filter="url(#gl)"/><circle cx="1540" cy="1570" r="18" fill="var(--s)" filter="url(#gl)"/><rect width="4096" height="2304" filter="url(#n)" opacity=".3"/>
</svg>
