<svg xmlns="http://www.w3.org/2000/svg" viewBox="0 0 4096 2304" preserveAspectRatio="xMidYMid slice" role="img" aria-labelledby="title desc">
<title id="title">Monolith gate</title><desc id="desc">A monumental calibrated gate cut through graphite plates with one blue execution seam.</desc>
<defs><style>:root{--g:#f6f8fa;--p:#d9dee3;--h:#eef1f3;--m:#11151a;--l:#11151a;--s:#2f7cff}@media(prefers-color-scheme:dark){:root{--g:#050608;--p:#11151a;--h:#20262d;--m:#080b0f;--l:#dce4ec;--s:#2f7cff}}</style><filter id="n"><feTurbulence type="fractalNoise" baseFrequency=".68" numOctaves="3" seed="11"/><feColorMatrix values="1 0 0 0 0 0 1 0 0 0 0 0 1 0 0 0 0 0 .09 0"/></filter><filter id="gl"><feGaussianBlur stdDeviation="16" result="b"/><feMerge><feMergeNode in="b"/><feMergeNode in="SourceGraphic"/></feMerge></filter></defs>
<rect width="4096" height="2304" fill="var(--g)"/><path d="M0 0h1110l560 2304H0zM4096 0H2986l-560 2304h1670z" fill="var(--m)"/><path d="M1110 0h260l430 2304h-320zM2986 0h-260l-430 2304h320z" fill="var(--h)" opacity=".78"/><path d="M1540 0h1016l-190 2304h-636z" fill="var(--p)"/><path d="M2048 170v1940" stroke="var(--s)" stroke-width="10" filter="url(#gl)"/><g fill="none" stroke="var(--l)" stroke-width="5" opacity=".23"><path d="M140 340h1150M2806 340h1150M260 1790h1040M2796 1790h1040"/><path d="M1110 0l470 2304M2986 0l-470 2304"/></g><circle cx="2048" cy="1170" r="18" fill="var(--s)" filter="url(#gl)"/><rect width="4096" height="2304" filter="url(#n)" opacity=".32"/>
</svg>
