<svg xmlns="http://www.w3.org/2000/svg" viewBox="0 0 4096 2304" preserveAspectRatio="xMidYMid slice" role="img" aria-labelledby="title desc">
<title id="title">Vault storm</title><desc id="desc">Pointed structural ribs hold a directional storm field inside a severe technical vault.</desc>
<defs><style>:root{--g:#f4f6f8;--p:#d4dae0;--h:#edf1f4;--m:#11161b;--l:#151a20;--s:#2f7cff}@media(prefers-color-scheme:dark){:root{--g:#05070a;--p:#141d28;--h:#263342;--m:#08101a;--l:#d9e4ef;--s:#2f7cff}}</style><filter id="n"><feTurbulence type="fractalNoise" baseFrequency=".012 .08" numOctaves="3" seed="59" result="q"/><feDisplacementMap in="SourceGraphic" in2="q" scale="20"/></filter><filter id="grain"><feTurbulence type="fractalNoise" baseFrequency=".65" numOctaves="3" seed="61"/><feColorMatrix values="1 0 0 0 0 0 1 0 0 0 0 0 1 0 0 0 0 0 .08 0"/></filter><filter id="gl"><feGaussianBlur stdDeviation="14" result="b"/><feMerge><feMergeNode in="b"/><feMergeNode in="SourceGraphic"/></feMerge></filter></defs>
<rect width="4096" height="2304" fill="var(--g)"/><g fill="none" stroke="var(--p)" stroke-width="150"><path d="M270 2304V1020Q2048-760 3826 1020v1284"/><path d="M650 2304V1130Q2048-330 3446 1130v1174"/></g><g fill="none" stroke="var(--m)" stroke-width="76"><path d="M1040 2304V1240Q2048 100 3056 1240v1064"/><path d="M1450 2304V1370Q2048 650 2646 1370v934"/></g><g fill="none" stroke="var(--l)" stroke-width="8" opacity=".2" filter="url(#n)"><path d="M-200 430 2940-120M-120 690 3580-80M-100 980 4180 130M-140 1280 4250 420M-100 1600 4300 760M0 1900 4320 1110"/></g><g fill="none" stroke="var(--l)" stroke-width="5" opacity=".23"><path d="M270 1840h3556M650 1580h2796M1040 1450h2016M2048 250v2054"/><path d="M380 390h720M2996 390h720"/></g><path d="M1160 1260h1776" stroke="var(--s)" stroke-width="9" filter="url(#gl)"/><circle cx="2048" cy="1260" r="18" fill="var(--s)" filter="url(#gl)"/><rect width="4096" height="2304" filter="url(#grain)" opacity=".28"/>
</svg>
