<svg xmlns="http://www.w3.org/2000/svg" viewBox="0 0 512 512" role="img" aria-labelledby="title desc"><title id="title">Glass fissure texture</title><desc id="desc">A repeatable network of hard optical fractures constrained to a sparse technical field.</desc><style>:root{--g:#edf1f3;--l:#17202a;--s:#2f7cff}@media(prefers-color-scheme:dark){:root{--g:#091019;--l:#dbe8f2;--s:#2f7cff}}</style><rect width="512" height="512" fill="var(--g)"/><g fill="none" stroke="var(--l)" opacity=".2"><path d="M20 210 132 148l42-112 56 122 110 28 58 100 94 46"/><path d="M174 158 124 270l72 64-30 158M340 186l-38 112 74 62-20 132M302 298l-106 36M398 286l-22 74"/><path d="M0 396 96 354l70 42 96-48 94 32 156-52"/></g><path d="m196 330 6-6 6 6-6 6z" fill="var(--s)"/></svg>
