<svg xmlns="http://www.w3.org/2000/svg" viewBox="0 0 512 512" role="img" aria-labelledby="title desc"><title id="title">Ritual grid texture</title><desc id="desc">A repeatable calibrated grid of cut corners, braces, and one signal register.</desc><style>:root{--g:#eceeef;--l:#14191f;--s:#2f7cff}@media(prefers-color-scheme:dark){:root{--g:#0b0e12;--l:#dce4ec;--s:#2f7cff}}</style><rect width="512" height="512" fill="var(--g)"/><g fill="none" stroke="var(--l)" opacity=".17"><path d="M16 16h160l32 32v128l-32 32H48l-32-32zM304 16h160l32 32v128l-32 32H336l-32-32zM16 304h160l32 32v128l-32 32H48l-32-32zM304 304h160l32 32v128l-32 32H336l-32-32z"/><path d="M208 112h96M208 400h96M112 208v96M400 208v96"/><path d="m64 64 96 96m0-96-96 96m288-96 96 96m0-96-96 96m-288 192 96 96m0-96-96 96m288-96 96 96m0-96-96 96"/></g><rect x="252" y="248" width="8" height="16" fill="var(--s)"/></svg>
